<svg xmlns="http://www.w3.org/2000/svg" viewBox="0 0 400 470" width="400" height="470">
<rect width="400" height="470" fill="#0a0a0c"/>
<g transform="translate(16,16) scale(0.92)"><path d="M244,132 L292,128 L326,100 L338,56 L346,10 L370,58 L366,120 L328,170 L276,182 Z" fill="none" stroke="#ff3b30" stroke-width="26" stroke-linejoin="round"/><path d="M244,132 L292,128 L326,100 L338,56 L346,10 L370,58 L366,120 L328,170 L276,182 Z" transform="translate(400,0) scale(-1,1)" fill="none" stroke="#ff3b30" stroke-width="26" stroke-linejoin="round"/><path d="M244,132 L292,128 L326,100 L338,56 L346,10 L370,58 L366,120 L328,170 L276,182 Z" fill="none" stroke="#f5f5f7" stroke-width="14" stroke-linejoin="round"/><path d="M244,132 L292,128 L326,100 L338,56 L346,10 L370,58 L366,120 L328,170 L276,182 Z" transform="translate(400,0) scale(-1,1)" fill="none" stroke="#f5f5f7" stroke-width="14" stroke-linejoin="round"/><path d="M244,132 L292,128 L326,100 L338,56 L346,10 L370,58 L366,120 L328,170 L276,182 Z" fill="#0a0a0c" stroke="#0a0a0c" stroke-width="2" stroke-linejoin="round"/><path d="M244,132 L292,128 L326,100 L338,56 L346,10 L370,58 L366,120 L328,170 L276,182 Z" transform="translate(400,0) scale(-1,1)" fill="#0a0a0c" stroke="#0a0a0c" stroke-width="2" stroke-linejoin="round"/><path d="M200,108 L248,118 L270,160 L262,222 L246,262 L236,312 L214,344 L200,350 Z" fill="none" stroke="#ff3b30" stroke-width="26" stroke-linejoin="round"/><path d="M200,108 L248,118 L270,160 L262,222 L246,262 L236,312 L214,344 L200,350 Z" transform="translate(400,0) scale(-1,1)" fill="none" stroke="#ff3b30" stroke-width="26" stroke-linejoin="round"/><path d="M200,108 L248,118 L270,160 L262,222 L246,262 L236,312 L214,344 L200,350 Z" fill="none" stroke="#f5f5f7" stroke-width="14" stroke-linejoin="round"/><path d="M200,108 L248,118 L270,160 L262,222 L246,262 L236,312 L214,344 L200,350 Z" transform="translate(400,0) scale(-1,1)" fill="none" stroke="#f5f5f7" stroke-width="14" stroke-linejoin="round"/><path d="M200,108 L248,118 L270,160 L262,222 L246,262 L236,312 L214,344 L200,350 Z" fill="#0a0a0c" stroke="#0a0a0c" stroke-width="2" stroke-linejoin="round"/><path d="M200,108 L248,118 L270,160 L262,222 L246,262 L236,312 L214,344 L200,350 Z" transform="translate(400,0) scale(-1,1)" fill="#0a0a0c" stroke="#0a0a0c" stroke-width="2" stroke-linejoin="round"/><path d="M232,168 L288,176 L248,198 Z" fill="#ff3b30"/><path d="M232,168 L288,176 L248,198 Z" transform="translate(400,0) scale(-1,1)" fill="#ff3b30"/><path d="M200,116 L222,150 L204,196 L200,204 Z" fill="#2a2a31"/><path d="M200,116 L222,150 L204,196 L200,204 Z" transform="translate(400,0) scale(-1,1)" fill="#2a2a31"/><path d="M252,262 L274,230 L282,278 L250,296 Z" fill="#2a2a31"/><path d="M252,262 L274,230 L282,278 L250,296 Z" transform="translate(400,0) scale(-1,1)" fill="#2a2a31"/><ellipse cx="200" cy="318" rx="34" ry="14" fill="#2a2a31"/><circle cx="188" cy="318" r="5" fill="#ff3b30"/><circle cx="212" cy="318" r="5" fill="#ff3b30"/><path d="M172,334 Q200,380 228,334" fill="none" stroke="#f5f5f7" stroke-width="6" stroke-linecap="round"/></g>
<text x="200" y="440" text-anchor="middle" font-family="DejaVu Sans,Arial,sans-serif" font-weight="900" font-size="60" letter-spacing="4" fill="#f5f5f7" stroke="#ff3b30" stroke-width="2" paint-order="stroke">GFG</text>
<text x="200" y="462" text-anchor="middle" font-family="Arial Black,sans-serif" font-size="11" letter-spacing="5" fill="#9a9aa3">BULL</text>
</svg>